<svg width="24" height="24" viewBox="0 0 24 24" fill="none" xmlns="http://www.w3.org/2000/svg">
<path fill-rule="evenodd" clip-rule="evenodd" d="M11.49 4.11C10.1081 3.28108 8.55314 2.78297 6.94676 2.6546C5.34039 2.52623 3.72609 2.77107 2.23002 3.37C2.0142 3.45635 1.8292 3.60539 1.6989 3.7979C1.5686 3.99041 1.49898 4.21754 1.49902 4.45V16.11C1.49902 16.89 2.28802 17.424 3.01302 17.134C4.23816 16.644 5.56001 16.4439 6.87528 16.5494C8.19056 16.6548 9.46363 17.063 10.595 17.742L11.73 18.422C11.817 18.475 11.91 18.497 11.999 18.496C12.0941 18.4977 12.1877 18.4724 12.269 18.423L13.403 17.742C14.5344 17.063 15.8075 16.6548 17.1228 16.5494C18.438 16.4439 19.7599 16.644 20.985 17.134C21.1525 17.201 21.3339 17.2259 21.5133 17.2066C21.6926 17.1873 21.8646 17.1243 22.0139 17.0232C22.1633 16.922 22.2857 16.7858 22.3702 16.6264C22.4548 16.4671 22.499 16.2894 22.499 16.109V4.45C22.499 3.974 22.209 3.547 21.768 3.37C20.2719 2.77153 18.6577 2.52711 17.0516 2.65582C15.4454 2.78454 13.8907 3.28291 12.509 4.112L11.999 4.418L11.489 4.112L11.49 4.11ZM12.75 6.5C12.75 6.30109 12.671 6.11032 12.5304 5.96967C12.3897 5.82902 12.1989 5.75 12 5.75C11.8011 5.75 11.6103 5.82902 11.4697 5.96967C11.329 6.11032 11.25 6.30109 11.25 6.5V16C11.25 16.1989 11.329 16.3897 11.4697 16.5303C11.6103 16.671 11.8011 16.75 12 16.75C12.1989 16.75 12.3897 16.671 12.5304 16.5303C12.671 16.3897 12.75 16.1989 12.75 16V6.5Z" fill="#2F2F2F"/>
<path d="M2.72495 19.042C3.719 18.4622 4.84916 18.1567 5.99995 18.1567C7.15074 18.1567 8.2809 18.4622 9.27495 19.042L10.3619 19.676C10.8591 19.9661 11.4244 20.119 11.9999 20.119C12.5755 20.119 13.1408 19.9661 13.6379 19.676L14.7249 19.042C15.719 18.4622 16.8492 18.1567 17.9999 18.1567C19.1507 18.1567 20.2809 18.4622 21.275 19.042L21.378 19.102C21.463 19.1516 21.5375 19.2176 21.5972 19.296C21.6568 19.3744 21.7004 19.4638 21.7254 19.5591C21.7505 19.6544 21.7566 19.7536 21.7433 19.8513C21.73 19.9489 21.6976 20.0429 21.648 20.128C21.5983 20.2131 21.5324 20.2876 21.454 20.3472C21.3755 20.4068 21.2861 20.4504 21.1909 20.4755C21.0956 20.5006 20.9963 20.5066 20.8987 20.4933C20.8011 20.48 20.707 20.4476 20.622 20.398L20.5189 20.338C19.7544 19.8921 18.8851 19.6571 17.9999 19.6571C17.1148 19.6571 16.2455 19.8921 15.4809 20.338L14.3929 20.972C13.6666 21.3956 12.8408 21.6188 11.9999 21.6188C11.1591 21.6188 10.3333 21.3956 9.60695 20.972L8.51895 20.338C7.75435 19.8921 6.88508 19.6571 5.99995 19.6571C5.11482 19.6571 4.24555 19.8921 3.48095 20.338L3.37795 20.398C3.20609 20.4983 3.00144 20.5261 2.80903 20.4755C2.61662 20.4249 2.4522 20.2999 2.35195 20.128C2.2517 19.9561 2.22382 19.7515 2.27446 19.5591C2.32509 19.3667 2.45009 19.2023 2.62195 19.102L2.72495 19.042Z" fill="#2F2F2F"/>
</svg>
