<?xml version="1.0" encoding="UTF-8"?>
<svg id="Capa_1" data-name="Capa 1" xmlns="http://www.w3.org/2000/svg" viewBox="0 0 160 160">
  <defs>
    <style>
      .cls-1 {
        fill: #2ebd59;
      }
    </style>
  </defs>
  <path class="cls-1" d="m80,7.78h0c-39.89,0-72.22,32.33-72.22,72.22s32.33,72.22,72.22,72.22,72.22-32.33,72.22-72.22S119.89,7.78,80,7.78Zm33.12,104.16h0c-1.3,2.13-4.07,2.79-6.19,1.5-16.96-10.37-38.31-12.71-63.44-6.96-2.42.56-4.84-.96-5.39-3.38-.55-2.42.96-4.84,3.39-5.39,27.51-6.29,51.11-3.58,70.14,8.05,2.12,1.3,2.79,4.07,1.49,6.19Zm8.84-19.66h0c-1.63,2.65-5.1,3.48-7.75,1.85-19.41-11.93-49-15.39-71.96-8.42-2.98.9-6.12-.78-7.03-3.75-.9-2.98.78-6.12,3.75-7.02,26.23-7.96,58.83-4.1,81.13,9.6,2.65,1.63,3.48,5.1,1.85,7.74h0Zm.76-20.48h0c-23.28-13.83-61.68-15.1-83.9-8.35-3.57,1.08-7.34-.93-8.42-4.5-1.08-3.57.93-7.34,4.5-8.43,25.51-7.74,67.92-6.25,94.72,9.66,3.21,1.91,4.26,6.05,2.36,9.26-1.9,3.21-6.05,4.27-9.25,2.36Z"/>
</svg>