<?xml version="1.0" encoding="UTF-8"?>
<svg id="Capa_1" data-name="Capa 1" xmlns="http://www.w3.org/2000/svg" viewBox="0 0 160 160">
  <defs>
    <style>
      .cls-1 {
        fill: #31c1e8;
      }
    </style>
  </defs>
  <path class="cls-1" d="m153.11,80c0-20.99-9.1-41.01-24.96-54.92-.02-.01-.03-.03-.05-.04-.01-.01-.02-.02-.04-.03-12.99-11.37-29.63-17.78-46.87-18.06,0,0,0,0,0,0,0,0,0,0,0,0l-.33-.02c-.28-.02-.57-.04-.86-.04s-.57.02-.86.04l-.33.02s0,0,0,0c0,0,0,0,0,0-17.24.28-33.88,6.69-46.88,18.06,0,0-.02.01-.03.02-.02.02-.04.03-.05.05C15.99,38.99,6.89,59.01,6.89,80s7.93,38.62,22.34,52.54c13.37,12.92,30.96,20.2,49.55,20.51,0,0,0,0,.01,0l.33.02c.29.02.59.04.88.04s.59-.02.88-.04l.33-.02s0,0,.01,0c18.58-.31,36.18-7.59,49.55-20.51,14.4-13.92,22.33-32.58,22.33-52.54Zm-25.08,45.06c-5-3.98-10.44-7.29-16.25-9.92,4.45-10.07,6.92-20.65,7.36-31.54h26.66c-.83,15.56-7.05,30.06-17.77,41.45ZM83.61,18.76c6.28,5.34,11.73,11.61,16.09,18.52-5.3,1.57-10.69,2.51-16.09,2.8v-21.32Zm-7.21,0v21.32c-5.41-.29-10.79-1.23-16.09-2.8,4.36-6.91,9.82-13.19,16.09-18.52Zm28.67,93.71c-6.98-2.41-14.18-3.8-21.47-4.15v-24.72h28.32c-.45,9.96-2.74,19.65-6.85,28.87Zm-28.67-4.15c-7.29.34-14.48,1.74-21.47,4.15-4.11-9.22-6.4-18.91-6.85-28.87h28.32v24.72Zm0,7.22v25.68c-7.33-6.25-13.52-13.8-18.21-22.24,5.94-1.96,12.04-3.12,18.21-3.44Zm7.21,25.68v-25.68c6.17.32,12.27,1.48,18.21,3.44-4.69,8.44-10.88,15.99-18.21,22.24Zm0-64.83v-29.09c6.64-.32,13.25-1.52,19.73-3.59,5.14,10.14,8.07,21.32,8.58,32.68h-28.31Zm23.05-41.55c-4.44-7.36-10.02-14.09-16.46-19.9,10.77,1.69,20.99,6.05,29.7,12.7-4.12,2.86-8.55,5.27-13.24,7.2Zm-53.31,0c-4.69-1.93-9.12-4.34-13.24-7.2,8.71-6.64,18.94-11.01,29.7-12.7-6.44,5.8-12.02,12.54-16.47,19.9Zm3.32,8.87c6.48,2.07,13.09,3.27,19.73,3.59v29.09h-28.32c.51-11.36,3.45-22.53,8.58-32.68Zm-15.8,39.89c.45,10.89,2.92,21.46,7.36,31.54-5.81,2.63-11.25,5.94-16.25,9.92-10.73-11.39-16.94-25.9-17.78-41.45h26.66Zm10.53,38.01c4.77,8.81,11.03,16.76,18.44,23.45-12.02-1.86-23.26-7.02-32.57-14.98,4.37-3.37,9.09-6.22,14.13-8.47Zm57.21,0c5.03,2.26,9.76,5.1,14.13,8.47-9.31,7.96-20.55,13.12-32.57,14.98,7.41-6.69,13.67-14.64,18.44-23.45Zm37.19-45.22h-26.66c-.51-12.21-3.59-24.24-9-35.2,5.49-2.32,10.65-5.23,15.42-8.71,12.09,11.59,19.33,27.29,20.25,43.91ZM34.45,32.49c4.77,3.48,9.93,6.39,15.42,8.71-5.42,10.95-8.5,22.98-9,35.2H14.2c.92-16.62,8.16-32.32,20.25-43.91Z"/>
</svg>